<svg width="535" height="64" viewBox="0 0 535 64" fill="none" xmlns="http://www.w3.org/2000/svg">
<path d="M93.3524 26.3558C93.3524 29.0626 92.6463 31.1424 91.2341 32.6152C89.8319 34.088 87.9027 34.8244 85.4762 34.8244C83.2685 34.8244 81.5679 34.1975 80.3944 32.9138C79.2011 31.6499 78.6143 29.789 78.6143 27.3211V13.1802H74V27.8485C74 31.5007 74.9746 34.2572 76.9337 36.138C78.8828 38.0089 81.558 38.9443 84.9491 38.9443C86.7391 38.9443 88.3999 38.586 89.9214 37.8695C91.4529 37.1431 92.6662 36.128 93.601 34.8145V38.6656H97.9766V13.1802H93.3623V26.3558H93.3524Z" fill="#444D5A"/>
<path d="M123.753 14.5834C121.804 13.4987 119.596 12.9613 117.13 12.9613C115.241 12.9613 113.51 13.3096 111.939 14.0361C110.368 14.7625 109.075 15.8273 108.051 17.2305V13.1902H103.635V48H108.249V34.8244C109.304 36.1679 110.586 37.1829 112.108 37.8994C113.639 38.606 115.31 38.9543 117.13 38.9543C119.596 38.9543 121.804 38.4169 123.753 37.3123C125.702 36.2276 127.234 34.6951 128.348 32.7247C129.442 30.7444 129.998 28.4954 129.998 25.918C129.998 23.3605 129.452 21.1015 128.348 19.1411C127.234 17.2006 125.702 15.678 123.753 14.5834ZM124.211 30.615C123.465 31.9883 122.431 33.0332 121.138 33.7895C119.845 34.5458 118.383 34.924 116.742 34.924C115.141 34.924 113.679 34.5458 112.367 33.7895C111.054 33.0431 110.03 31.9883 109.294 30.615C108.558 29.2616 108.2 27.6893 108.2 25.9279C108.2 24.1765 108.578 22.6141 109.323 21.2707C110.069 19.9273 111.104 18.8724 112.396 18.1161C113.689 17.3698 115.141 16.9916 116.742 16.9916C118.383 16.9916 119.835 17.3499 121.138 18.0863C122.431 18.8227 123.465 19.8775 124.211 21.2408C124.966 22.5942 125.344 24.1665 125.344 25.918C125.344 27.6893 124.966 29.2616 124.211 30.615Z" fill="#444D5A"/>
<path d="M143.573 35.0633C142.3 35.0633 141.306 34.705 140.629 33.9686C139.943 33.2322 139.585 32.1674 139.585 30.7842V16.9916H146.894V13.1902H139.585V7.60749H134.981V30.9733C134.981 33.5308 135.687 35.5111 137.089 36.8844C138.501 38.2676 140.49 38.9542 143.046 38.9542C144.11 38.9542 145.124 38.805 146.119 38.4965C147.113 38.188 147.939 37.7501 148.625 37.1729L147.183 33.8492C146.188 34.6652 144.985 35.0633 143.573 35.0633Z" fill="#444D5A"/>
<path d="M170.274 14.6033C168.355 13.5086 166.197 12.9513 163.761 12.9513C161.314 12.9513 159.136 13.4987 157.207 14.6033C155.268 15.7178 153.746 17.2603 152.633 19.2506C151.539 21.2408 150.972 23.46 150.972 25.9279C150.972 28.4357 151.549 30.6747 152.682 32.665C153.816 34.6552 155.427 36.1977 157.506 37.2924C159.584 38.4069 161.981 38.9542 164.676 38.9542C166.794 38.9542 168.693 38.6059 170.414 37.8994C172.124 37.1829 173.556 36.1678 174.72 34.8244L172.174 31.839C170.314 33.889 167.858 34.914 164.825 34.914C162.319 34.914 160.24 34.2373 158.56 32.864C156.879 31.5106 155.894 29.7094 155.606 27.4604H176.261C176.331 26.8832 176.351 26.4155 176.351 26.0672C176.351 23.4898 175.824 21.2209 174.75 19.2406C173.666 17.2603 172.174 15.7178 170.274 14.6033ZM155.586 24.1466C155.845 21.9673 156.71 20.2059 158.202 18.8624C159.683 17.519 161.543 16.8523 163.751 16.8523C165.959 16.8523 167.808 17.529 169.29 18.8923C170.782 20.2656 171.647 22.017 171.905 24.1566H155.586V24.1466Z" fill="#444D5A"/>
<path d="M189.289 18.0862C190.621 17.3498 192.113 16.9916 193.774 16.9916C195.226 16.9916 196.528 17.3001 197.712 17.9071C198.905 18.5141 199.9 19.4297 200.695 20.6437L204.206 18.3848C203.211 16.6234 201.809 15.27 200.009 14.3445C198.199 13.4091 196.141 12.9513 193.823 12.9513C191.238 12.9513 188.931 13.4987 186.892 14.6033C184.843 15.7178 183.252 17.2503 182.109 19.2207C180.955 21.1811 180.378 23.4301 180.378 25.9279C180.378 28.4357 180.955 30.6648 182.109 32.6451C183.252 34.6055 184.843 36.1579 186.892 37.2724C188.931 38.3969 191.238 38.9542 193.823 38.9542C196.141 38.9542 198.199 38.4865 200.009 37.5411C201.809 36.5958 203.211 35.2324 204.206 33.481L200.695 31.2718C199.9 32.4858 198.905 33.4014 197.712 34.0084C196.528 34.6154 195.226 34.9239 193.774 34.9239C192.113 34.9239 190.621 34.5458 189.289 33.8094C187.956 33.073 186.912 32.0281 186.166 30.6647C185.42 29.3114 185.032 27.7291 185.032 25.9279C185.032 24.1765 185.42 22.6041 186.166 21.2508C186.912 19.8775 187.956 18.8326 189.289 18.0862Z" fill="#444D5A"/>
<path d="M231.136 15.7676C229.227 13.8967 226.661 12.9613 223.419 12.9613C221.5 12.9613 219.759 13.2897 218.208 13.9664C216.656 14.6331 215.403 15.5785 214.449 16.7926V3.00001H209.834V38.6756H214.449V25.5398C214.449 22.8231 215.165 20.7333 216.607 19.2705C218.049 17.8076 220.018 17.0812 222.514 17.0812C224.722 17.0812 226.432 17.6981 227.606 18.952C228.789 20.2059 229.386 22.0668 229.386 24.5347V38.6756H234V24.0073C234 20.385 233.045 17.6384 231.136 15.7676Z" fill="#444D5A"/>
<path d="M116.657 60.4842C115.537 60.1469 114.654 59.6906 114 59.1252L115.001 56.8834C115.636 57.3893 116.419 57.796 117.342 58.1134C118.264 58.4309 119.196 58.5896 120.128 58.5896C121.288 58.5896 122.141 58.4011 122.716 58.0341C123.291 57.6671 123.569 57.1711 123.569 56.566C123.569 56.1197 123.41 55.7526 123.093 55.465C122.775 55.1773 122.369 54.9492 121.883 54.7904C121.397 54.6317 120.723 54.4433 119.88 54.235C118.7 53.9572 117.738 53.6696 117.004 53.3918C116.271 53.1141 115.646 52.6677 115.12 52.0725C114.595 51.4774 114.337 50.664 114.337 49.6423C114.337 48.7793 114.575 48.0056 115.041 47.3013C115.507 46.597 116.211 46.0415 117.153 45.6249C118.095 45.2083 119.245 45 120.604 45C121.546 45 122.488 45.119 123.4 45.3571C124.312 45.5952 125.106 45.9324 125.78 46.3788L124.868 48.6206C124.183 48.2238 123.479 47.9163 122.736 47.708C121.992 47.4997 121.278 47.4005 120.584 47.4005C119.444 47.4005 118.601 47.589 118.046 47.9758C117.49 48.3627 117.213 48.8686 117.213 49.5034C117.213 49.9498 117.371 50.3069 117.689 50.5945C118.006 50.8723 118.412 51.1004 118.898 51.2591C119.384 51.4179 120.049 51.6063 120.901 51.8146C122.052 52.0824 123.003 52.3602 123.737 52.6479C124.481 52.9355 125.116 53.3819 125.631 53.9671C126.157 54.5623 126.424 55.3559 126.424 56.3676C126.424 57.2306 126.186 58.0043 125.73 58.6987C125.264 59.393 124.56 59.9485 123.608 60.3652C122.656 60.7818 121.506 60.9901 120.148 60.9901C118.928 61 117.778 60.8314 116.657 60.4842Z" fill="#444D5A"/>
<path d="M138.869 47.6782H133.722V45.2381H146.91V47.6782H141.764V60.7818H138.879V47.6782H138.869Z" fill="#444D5A"/>
<path d="M157.123 59.1847C155.924 57.9746 155.329 56.2486 155.329 53.9969V45.2281H158.214V53.8878C158.214 56.9429 159.533 58.4606 162.171 58.4606C164.788 58.4606 166.097 56.933 166.097 53.8878V45.2281H168.943V53.9969C168.943 56.2486 168.348 57.9746 167.158 59.1847C165.968 60.3949 164.293 61 162.151 61C160.009 61 158.323 60.3949 157.123 59.1847Z" fill="#444D5A"/>
<path d="M179.632 45.2281H186.424C188.08 45.2281 189.558 45.5455 190.847 46.1903C192.136 46.8351 193.137 47.7477 193.841 48.9181C194.555 50.0985 194.902 51.4575 194.902 52.995C194.902 54.5325 194.545 55.8915 193.841 57.0719C193.127 58.2523 192.136 59.155 190.847 59.7997C189.558 60.4445 188.09 60.7619 186.424 60.7619H179.632V45.2281ZM186.295 58.3317C187.436 58.3317 188.437 58.1134 189.3 57.677C190.163 57.2405 190.827 56.6156 191.303 55.8121C191.769 55.0086 191.997 54.0663 191.997 53.0049C191.997 51.9436 191.769 51.0012 191.303 50.1978C190.837 49.3943 190.172 48.7694 189.3 48.3329C188.437 47.8964 187.436 47.6782 186.295 47.6782H182.518V58.3416H186.295V58.3317Z" fill="#444D5A"/>
<path d="M204.63 45.2281H207.515V60.7718H204.63V45.2281Z" fill="#444D5A"/>
<path d="M221.348 59.9685C220.078 59.284 219.077 58.3218 218.353 57.1018C217.629 55.8817 217.262 54.5128 217.262 53.0051C217.262 51.4973 217.629 50.1284 218.353 48.9083C219.077 47.6883 220.078 46.736 221.348 46.0416C222.617 45.3572 224.045 45.01 225.631 45.01C227.218 45.01 228.645 45.3572 229.915 46.0416C231.184 46.7261 232.185 47.6783 232.909 48.8984C233.633 50.1086 234 51.4775 234 53.0051C234 54.5326 233.633 55.9015 232.909 57.1117C232.185 58.3219 231.184 59.2741 229.915 59.9685C228.645 60.6529 227.218 61.0001 225.631 61.0001C224.045 61.0001 222.617 60.6529 221.348 59.9685ZM228.427 57.7664C229.26 57.3001 229.905 56.6455 230.381 55.8122C230.857 54.979 231.095 54.0367 231.095 53.0051C231.095 51.9734 230.857 51.0311 230.381 50.1979C229.905 49.3646 229.25 48.71 228.427 48.2437C227.594 47.7775 226.662 47.5395 225.631 47.5395C224.6 47.5395 223.658 47.7775 222.835 48.2437C222.002 48.71 221.357 49.3646 220.881 50.1979C220.406 51.0311 220.168 51.9734 220.168 53.0051C220.168 54.0466 220.406 54.979 220.881 55.8122C221.357 56.6455 222.002 57.3001 222.835 57.7664C223.668 58.2326 224.6 58.4607 225.631 58.4607C226.662 58.4607 227.604 58.2326 228.427 57.7664Z" fill="#444D5A"/>
<path fill-rule="evenodd" clip-rule="evenodd" d="M33.9245 1.32105C30.8772 -0.440341 27.1228 -0.440341 24.0755 1.32105L4.92446 12.3908C1.87719 14.1522 0 17.4074 0 20.9302V43.0698C0 46.5926 1.87719 49.8478 4.92446 51.6092L24.0755 62.679C27.1228 64.4404 30.8772 64.4404 33.9245 62.679L53.0755 51.6092C56.1228 49.8478 58 46.5926 58 43.0698V20.9302C58 17.4074 56.1228 14.1522 53.0755 12.3908L33.9245 1.32105ZM42.9901 42.58C42.9901 43.6699 41.8106 44.3535 40.8591 43.8086L28.9951 36.9623L17.131 43.8086C16.1894 44.3535 15 43.6699 15 42.58V29.2044C15 28.2533 15.5055 27.3715 16.3381 26.8959L27.6669 20.3567C28.4896 19.8811 29.5104 19.8811 30.3331 20.3567L41.662 26.8959C42.4846 27.3715 43 28.2533 43 29.2044L42.9901 42.58Z" fill="#7551F8"/>
<path d="M278.908 18.444H281.068L269.836 52.464H267.676L278.908 18.444ZM281.445 22.836H298.293V25.068H283.929V34.068H296.781V36.3H283.929V45.768H298.761V48H281.445V22.836ZM321.311 22.836H323.759V48H321.131L305.543 26.688V48H303.059V22.836H305.687L321.311 44.148V22.836ZM347.588 35.688H349.784V44.904C348.56 45.936 347.132 46.752 345.5 47.352C343.892 47.928 342.248 48.216 340.568 48.216C338.192 48.216 335.996 47.64 333.98 46.488C331.988 45.336 330.404 43.776 329.228 41.808C328.052 39.84 327.464 37.692 327.464 35.364C327.464 33.036 328.052 30.9 329.228 28.956C330.404 27.012 332 25.476 334.016 24.348C336.056 23.196 338.276 22.62 340.676 22.62C342.38 22.62 344.024 22.92 345.608 23.52C347.216 24.12 348.632 24.96 349.856 26.04L348.416 27.804C347.384 26.844 346.196 26.112 344.852 25.608C343.508 25.08 342.116 24.816 340.676 24.816C338.732 24.816 336.944 25.296 335.312 26.256C333.68 27.192 332.384 28.464 331.424 30.072C330.464 31.68 329.984 33.444 329.984 35.364C329.984 37.308 330.464 39.096 331.424 40.728C332.384 42.336 333.68 43.62 335.312 44.58C336.968 45.516 338.768 45.984 340.712 45.984C341.912 45.984 343.1 45.792 344.276 45.408C345.476 45 346.58 44.436 347.588 43.716V35.688ZM355.287 22.836H357.771V48H355.287V22.836ZM382.146 22.836H384.594V48H381.966L366.378 26.688V48H363.894V22.836H366.522L382.146 44.148V22.836ZM390.746 22.836H407.594V25.068H393.23V34.068H406.082V36.3H393.23V45.768H408.062V48H390.746V22.836ZM412.36 22.836H429.208V25.068H414.844V34.068H427.696V36.3H414.844V45.768H429.676V48H412.36V22.836ZM450.57 48L445.134 39.792C444.366 39.84 443.778 39.864 443.37 39.864H436.458V48H433.974V22.836H443.37C446.514 22.836 448.938 23.568 450.642 25.032C452.37 26.472 453.234 28.524 453.234 31.188C453.234 33.276 452.73 35.016 451.722 36.408C450.714 37.8 449.274 38.772 447.402 39.324L453.45 48H450.57ZM443.37 37.632C445.77 37.632 447.618 37.092 448.914 36.012C450.21 34.908 450.858 33.324 450.858 31.26C450.858 29.244 450.21 27.708 448.914 26.652C447.618 25.596 445.77 25.068 443.37 25.068H436.458V37.632H443.37ZM458.19 22.836H460.674V48H458.19V22.836ZM485.048 22.836H487.496V48H484.868L469.28 26.688V48H466.796V22.836H469.424L485.048 44.148V22.836ZM511.324 35.688H513.52V44.904C512.296 45.936 510.868 46.752 509.236 47.352C507.628 47.928 505.984 48.216 504.304 48.216C501.928 48.216 499.732 47.64 497.716 46.488C495.724 45.336 494.14 43.776 492.964 41.808C491.788 39.84 491.2 37.692 491.2 35.364C491.2 33.036 491.788 30.9 492.964 28.956C494.14 27.012 495.736 25.476 497.752 24.348C499.792 23.196 502.012 22.62 504.412 22.62C506.116 22.62 507.76 22.92 509.344 23.52C510.952 24.12 512.368 24.96 513.592 26.04L512.152 27.804C511.12 26.844 509.932 26.112 508.588 25.608C507.244 25.08 505.852 24.816 504.412 24.816C502.468 24.816 500.68 25.296 499.048 26.256C497.416 27.192 496.12 28.464 495.16 30.072C494.2 31.68 493.72 33.444 493.72 35.364C493.72 37.308 494.2 39.096 495.16 40.728C496.12 42.336 497.416 43.62 499.048 44.58C500.704 45.516 502.504 45.984 504.448 45.984C505.648 45.984 506.836 45.792 508.012 45.408C509.212 45 510.316 44.436 511.324 43.716V35.688Z" fill="#8F949C"/>
<path d="M532.398 36.2734L522.273 47.5234C521.852 48.0156 521.148 48.0156 520.727 47.5938C520.234 47.1719 520.234 46.4688 520.656 46.0469L530.078 35.5L520.656 25.0234C520.234 24.6016 520.234 23.8984 520.727 23.4766C521.148 23.0547 521.852 23.0547 522.273 23.5469L532.398 34.7266C532.82 35.2188 532.82 35.8516 532.398 36.2734Z" fill="#8F949C"/>
<path d="M264.273 46.0469C264.695 46.4688 264.695 47.1719 264.203 47.5938C263.781 48.0156 263.078 48.0156 262.656 47.5234L252.531 36.2734C252.109 35.8516 252.109 35.2188 252.531 34.7969L262.656 23.6172C263.078 23.125 263.781 23.125 264.203 23.4766C264.695 23.9688 264.695 24.6719 264.273 25.0938L254.852 35.5L264.273 46.0469Z" fill="#8F949C"/>
</svg>
