<svg width="58" height="64" viewBox="0 0 58 64" fill="none" xmlns="http://www.w3.org/2000/svg">
<path fill-rule="evenodd" clip-rule="evenodd" d="M33.9245 1.32105C30.8772 -0.440348 27.1228 -0.440349 24.0755 1.32104L4.92446 12.3908C1.87719 14.1522 0 17.4074 0 20.9302V43.0698C0 46.5926 1.87719 49.8478 4.92446 51.6092L24.0755 62.679C27.1228 64.4403 30.8772 64.4403 33.9245 62.679L53.0755 51.6092C56.1228 49.8478 58 46.5926 58 43.0698V20.9302C58 17.4074 56.1228 14.1522 53.0755 12.3908L33.9245 1.32105ZM42.9901 42.58C42.9901 43.6699 41.8106 44.3535 40.8591 43.8086L28.9951 36.9623L17.131 43.8086C16.1894 44.3535 15 43.6699 15 42.58V29.2044C15 28.2533 15.5055 27.3715 16.3381 26.8959L27.6669 20.3567C28.4896 19.8811 29.5104 19.8811 30.3331 20.3567L41.662 26.8959C42.4846 27.3715 43 28.2533 43 29.2044L42.9901 42.58Z" fill="white"/>
</svg>
